<svg width="467" height="40" viewBox="0 0 467 40" fill="none" xmlns="http://www.w3.org/2000/svg">
<g clip-path="url(#clip0_260_7)">
<mask id="mask0_260_7" style="mask-type:luminance" maskUnits="userSpaceOnUse" x="-41" y="-26" width="564" height="85">
<path d="M522.14 -23.1703H-40.6602V-25.0703H522.14V-23.1703ZM522.14 -21.3803H-40.6602V-19.4703H522.14V-21.3803ZM522.14 -17.6803H-40.6602V-15.7803H522.14V-17.6803ZM522.14 -13.9903H-40.6602V-12.0703H522.14V-13.9903ZM522.14 -10.2903H-40.6602V-8.39031H522.14V-10.2903ZM522.14 -6.60031H-40.6602V-4.69031H522.14V-6.60031ZM522.14 -2.90031H-40.6602V-1.00031H522.14V-2.90031ZM522.14 0.789688H-40.6602V2.68969H522.14V0.789688ZM522.14 4.47969H-40.6602V6.38969H522.14V4.47969ZM522.14 8.17969H-40.6602V10.0797H522.14V8.17969ZM522.14 11.8697H-40.6602V13.7797H522.14V11.8697ZM522.14 15.5697H-40.6602V17.4697H522.14V15.5697ZM522.14 19.2597H-40.6602V21.1697H522.14V19.2597ZM522.14 22.9597H-40.6602V24.8597H522.14V22.9597ZM522.14 26.6497H-40.6602V28.5497H522.14V26.6497ZM522.14 30.3497H-40.6602V32.2497H522.14V30.3497ZM522.14 34.0397H-40.6602V35.9297H522.14V34.0397ZM522.14 37.7297H-40.6602V39.6397H522.14V37.7297ZM522.14 41.4297H-40.6602V43.3297H522.14V41.4297ZM522.14 45.1197H-40.6602V47.0297H522.14V45.1197ZM522.14 48.8197H-40.6602V50.7197H522.14V48.8197ZM522.14 52.5097H-40.6602V54.4197H522.14V52.5097ZM522.14 56.2097H-40.6602V58.1097H522.14V56.2097Z" fill="white"/>
</mask>
<g mask="url(#mask0_260_7)">
<path d="M34.95 0.410156C42.01 0.410156 46.7533 1.58016 49.18 3.92016C51.6067 6.26016 52.8167 10.9468 52.81 17.9802V22.4902C52.81 24.3302 52.81 25.6202 52.73 26.3602C52.65 27.1002 52.44 28.6102 52.05 30.9002C51.5581 33.3486 50.1209 35.5044 48.05 36.9002C45.5108 38.6975 42.4485 39.6046 39.34 39.4802H0.5V0.410156H34.95ZM40.8 20.0602V19.7102C40.8 15.9002 40.37 13.3202 39.52 12.0002C38.67 10.6802 36.35 10.0002 32.6 10.0002H12.39V29.8702H32.39C36.0567 29.8702 38.37 29.2035 39.33 27.8702C40.34 26.4702 40.8 23.9302 40.8 20.0602Z" fill="white"/>
<path d="M96.6299 0.410156C103.703 0.410156 108.45 1.58016 110.87 3.92016C113.29 6.26016 114.5 10.9468 114.5 17.9802V22.4902C114.5 24.3302 114.47 25.6202 114.41 26.3602C114.41 27.1002 114.13 28.6102 113.74 30.9002C113.248 33.3486 111.811 35.5044 109.74 36.9002C107.211 38.6877 104.165 39.5942 101.07 39.4802H62.1899V0.410156H96.6299ZM102.49 20.0602V19.7102C102.49 15.9002 102.06 13.3202 101.2 12.0002C100.34 10.6802 98.0399 10.0002 94.2899 10.0002H74.0799V29.8702H94.0799C97.7599 29.8702 100.08 29.1902 101.03 27.8702C101.98 26.5502 102.49 23.9302 102.49 20.0602Z" fill="white"/>
<path d="M135.12 27.6505C135.12 29.2505 135.66 30.2605 136.73 30.6505C138.176 31.1139 139.692 31.3204 141.21 31.2605L146.84 31.3205L154.84 31.0805C157.02 31.0805 158.45 30.8105 159.11 30.2605C159.44 29.9197 159.698 29.5164 159.87 29.0743C160.042 28.6322 160.124 28.1602 160.111 27.686C160.098 27.2118 159.99 26.745 159.794 26.313C159.598 25.881 159.318 25.4926 158.97 25.1705C158.2 24.5405 156.75 24.2305 154.6 24.2305H152.64L133.07 23.8205C129.403 23.8205 126.816 22.8938 125.31 21.0405C123.81 19.1805 123.05 16.3405 123.05 12.5105C122.918 9.91475 123.411 7.3253 124.49 4.96047C125.043 4.01121 125.796 3.19274 126.695 2.56105C127.594 1.92936 128.619 1.49936 129.7 1.30047C132.949 0.562959 136.268 0.177403 139.6 0.150469C143.68 0.0404688 146.43 -0.0195312 147.83 -0.0195312L156.15 0.0904694C158.839 0.0282679 161.526 0.296949 164.15 0.890469C165.023 1.05995 165.854 1.40307 166.593 1.89949C167.331 2.39591 167.963 3.03554 168.45 3.78047C169.192 4.95489 169.739 6.24148 170.07 7.59047C170.335 9.13919 170.452 10.7096 170.42 12.2805H158.79C158.848 11.7397 158.768 11.1932 158.558 10.6915C158.348 10.1898 158.015 9.74916 157.59 9.41047C156.574 8.80625 155.4 8.52062 154.22 8.59047L148.48 8.53047L139.4 8.82047C138.333 8.78916 137.274 9.02279 136.32 9.50047C135.913 9.71185 135.577 10.0374 135.354 10.4372C135.13 10.837 135.028 11.2934 135.06 11.7505C134.984 12.321 135.087 12.9011 135.356 13.4101C135.625 13.919 136.046 14.3316 136.56 14.5905C137.854 15.0976 139.241 15.3292 140.63 15.2705H141.86L149.86 15.3805L157.71 15.4405C162.71 15.4405 166.41 16.2305 168.71 17.8205C171.01 19.4105 172.14 22.5705 172.14 27.3405C172.14 31.9405 171.113 35.1038 169.06 36.8305C167.006 38.5571 163.62 39.4138 158.9 39.4005L143.67 39.8105L135.67 39.6405C131.45 39.6405 128.35 38.9505 126.35 37.5905C124.35 36.2305 123.35 33.4705 123.35 29.3305V27.0005H135.06L135.12 27.6505Z" fill="white"/>
<path d="M231.61 22.7292V25.0092C231.61 31.1026 230.017 35.1026 226.83 37.0092C223.643 38.9159 218.733 39.8892 212.1 39.9292H202.34C198.38 40.0218 194.419 39.7473 190.51 39.1092C187.862 38.6037 185.506 37.1091 183.92 34.9292C182.24 32.7092 181.4 29.2159 181.4 24.4492V0.449219H193.34V20.9292C193.34 24.8426 193.81 27.3826 194.75 28.5492C195.69 29.7159 198.053 30.2992 201.84 30.2992L207.17 30.3592L212.09 30.2992C215.33 30.2992 217.41 29.7992 218.33 28.7792C219.25 27.7592 219.71 25.7192 219.71 22.6292V0.469219H231.66L231.61 22.7292Z" fill="white"/>
<path d="M278.18 0.410156C282.87 0.410156 286.18 1.32016 288.23 3.13016C290.28 4.94016 291.23 8.13016 291.23 12.7702C291.25 14.2787 291.153 15.7866 290.94 17.2802C290.775 18.4318 290.377 19.5377 289.77 20.5302C289.255 21.3505 288.553 22.0362 287.72 22.5302C286.135 23.2987 284.49 23.9342 282.8 24.4302C284.947 24.5859 287.017 25.3032 288.8 26.5102C290.093 27.5502 290.736 29.3568 290.73 31.9302V39.4302H278.71V35.7302C278.751 34.1912 278.583 32.6538 278.21 31.1602C277.88 30.0302 276.32 29.4602 273.55 29.4602H253.69V39.4602H241.8V0.410156H278.18ZM273.18 19.9702C275.846 19.9702 277.513 19.6368 278.18 18.9702C278.84 18.3002 279.18 16.8202 279.18 14.5202C279.23 13.5483 279.102 12.5754 278.8 11.6502C278.659 11.3245 278.442 11.0374 278.167 10.813C277.892 10.5885 277.567 10.4332 277.22 10.3602C276.569 10.1534 275.899 10.0159 275.22 9.95016C274.71 9.95016 274.11 9.89016 273.4 9.89016H253.6V19.9302H273.11L273.18 19.9702Z" fill="white"/>
<path d="M318.06 39.4802L297.45 0.410156H310.45L325.78 29.8402L341.78 0.410156H355.04L333.22 39.4802H318.06Z" fill="white"/>
<path d="M405.34 0.410156V9.31016H373.61V15.9902H403.19V23.7202H373.61V30.6402H405.34V39.4802H361.72V0.410156H405.34Z" fill="white"/>
<path d="M466.4 0.410156L444.44 25.9302V39.4802H432.44V25.9302L410.16 0.410156H425.16L438.4 16.5202L451.52 0.410156H466.4Z" fill="white"/>
</g>
</g>
<defs>
<clipPath id="clip0_260_7">
<rect width="465.9" height="39.95" fill="white" transform="translate(0.5)"/>
</clipPath>
</defs>
</svg>
