<svg width="467" height="40" viewBox="0 0 467 40" fill="none" xmlns="http://www.w3.org/2000/svg">
<g clip-path="url(#clip0_165_481)">
<mask id="mask0_165_481" style="mask-type:luminance" maskUnits="userSpaceOnUse" x="-41" y="-26" width="563" height="85">
<path d="M521.802 -23.1313H-40.9978V-25.0312H521.802V-23.1313ZM521.802 -21.3412H-40.9978V-19.4313H521.802V-21.3412ZM521.802 -17.6413H-40.9978V-15.7413H521.802V-17.6413ZM521.802 -13.9513H-40.9978V-12.0312H521.802V-13.9513ZM521.802 -10.2513H-40.9978V-8.35125H521.802V-10.2513ZM521.802 -6.56125H-40.9978V-4.65125H521.802V-6.56125ZM521.802 -2.86125H-40.9978V-0.96125H521.802V-2.86125ZM521.802 0.828751H-40.9978V2.72875H521.802V0.828751ZM521.802 4.51875H-40.9978V6.42875H521.802V4.51875ZM521.802 8.21875H-40.9978V10.1188H521.802V8.21875ZM521.802 11.9087H-40.9978V13.8187H521.802V11.9087ZM521.802 15.6087H-40.9978V17.5088H521.802V15.6087ZM521.802 19.2988H-40.9978V21.2088H521.802V19.2988ZM521.802 22.9987H-40.9978V24.8988H521.802V22.9987ZM521.802 26.6888H-40.9978V28.5887H521.802V26.6888ZM521.802 30.3887H-40.9978V32.2887H521.802V30.3887ZM521.802 34.0788H-40.9978V35.9688H521.802V34.0788ZM521.802 37.7687H-40.9978V39.6787H521.802V37.7687ZM521.802 41.4688H-40.9978V43.3688H521.802V41.4688ZM521.802 45.1588H-40.9978V47.0687H521.802V45.1588ZM521.802 48.8587H-40.9978V50.7588H521.802V48.8587ZM521.802 52.5488H-40.9978V54.4587H521.802V52.5488ZM521.802 56.2487H-40.9978V58.1488H521.802V56.2487Z" fill="white"/>
</mask>
<g mask="url(#mask0_165_481)">
<path d="M34.6121 0.449219C41.6721 0.449219 46.4154 1.61922 48.8421 3.95922C51.2688 6.29922 52.4788 10.9859 52.4721 18.0192V22.5292C52.4721 24.3692 52.4721 25.6592 52.3921 26.3992C52.3121 27.1392 52.1021 28.6492 51.7121 30.9392C51.2202 33.3876 49.783 35.5434 47.7121 36.9392C45.1729 38.7365 42.1106 39.6436 39.0021 39.5192H0.162109V0.449219H34.6121ZM40.4621 20.0992V19.7492C40.4621 15.9392 40.0321 13.3592 39.1821 12.0392C38.3321 10.7192 36.0121 10.0392 32.2621 10.0392H12.0521V29.9092H32.0521C35.7188 29.9092 38.0321 29.2426 38.9921 27.9092C40.0021 26.5092 40.4621 23.9692 40.4621 20.0992Z" fill="white"/>
<path d="M96.292 0.449219C103.365 0.449219 108.112 1.61922 110.532 3.95922C112.952 6.29922 114.162 10.9859 114.162 18.0192V22.5292C114.162 24.3692 114.132 25.6592 114.072 26.3992C114.072 27.1392 113.792 28.6492 113.402 30.9392C112.91 33.3876 111.473 35.5434 109.402 36.9392C106.873 38.7267 103.827 39.6333 100.732 39.5192H61.8521V0.449219H96.292ZM102.152 20.0992V19.7492C102.152 15.9392 101.722 13.3592 100.862 12.0392C100.002 10.7192 97.702 10.0392 93.952 10.0392H73.7421V29.9092H93.7421C97.4221 29.9092 99.7421 29.2292 100.692 27.9092C101.642 26.5892 102.152 23.9692 102.152 20.0992Z" fill="white"/>
<path d="M134.782 27.6895C134.782 29.2895 135.322 30.2995 136.392 30.6895C137.838 31.153 139.355 31.3594 140.872 31.2995L146.502 31.3595L154.502 31.1195C156.682 31.1195 158.112 30.8495 158.772 30.2995C159.102 29.9588 159.361 29.5555 159.533 29.1134C159.705 28.6713 159.786 28.1993 159.773 27.7251C159.76 27.2509 159.653 26.7841 159.457 26.3521C159.261 25.9201 158.98 25.5316 158.632 25.2095C157.862 24.5795 156.412 24.2695 154.262 24.2695H152.302L132.732 23.8595C129.065 23.8595 126.479 22.9329 124.972 21.0795C123.472 19.2195 122.712 16.3795 122.712 12.5495C122.58 9.95382 123.074 7.36436 124.152 4.99953C124.706 4.05027 125.458 3.2318 126.357 2.60011C127.256 1.96842 128.281 1.53842 129.362 1.33953C132.611 0.602022 135.93 0.216465 139.262 0.189531C143.342 0.0795313 146.092 0.0195312 147.492 0.0195312L155.812 0.129532C158.502 0.0673304 161.188 0.336012 163.812 0.929531C164.686 1.09901 165.517 1.44213 166.255 1.93855C166.994 2.43497 167.625 3.0746 168.112 3.81953C168.854 4.99395 169.401 6.28054 169.732 7.62953C169.997 9.17826 170.114 10.7486 170.082 12.3195H158.452C158.51 11.7788 158.43 11.2323 158.22 10.7306C158.011 10.2288 157.678 9.78822 157.252 9.44953C156.236 8.84531 155.062 8.55968 153.882 8.62953L148.142 8.56953L139.062 8.85953C137.995 8.82823 136.937 9.06186 135.982 9.53953C135.576 9.75091 135.24 10.0765 135.016 10.4763C134.792 10.876 134.69 11.3325 134.722 11.7895C134.646 12.3601 134.75 12.9402 135.019 13.4491C135.287 13.9581 135.708 14.3707 136.222 14.6295C137.517 15.1367 138.903 15.3683 140.292 15.3095H141.522L149.522 15.4195L157.372 15.4795C162.372 15.4795 166.072 16.2695 168.372 17.8595C170.672 19.4495 171.802 22.6095 171.802 27.3795C171.802 31.9795 170.775 35.1429 168.722 36.8695C166.669 38.5962 163.282 39.4529 158.562 39.4395L143.332 39.8495L135.332 39.6795C131.112 39.6795 128.012 38.9895 126.012 37.6295C124.012 36.2695 123.012 33.5095 123.012 29.3695V27.0395H134.722L134.782 27.6895Z" fill="white"/>
<path d="M231.272 22.7683V25.0483C231.272 31.1416 229.679 35.1416 226.492 37.0483C223.305 38.9549 218.395 39.9283 211.762 39.9683H202.002C198.042 40.0609 194.082 39.7864 190.172 39.1483C187.524 38.6427 185.168 37.1482 183.582 34.9683C181.902 32.7483 181.062 29.2549 181.062 24.4883V0.488281H193.002V20.9683C193.002 24.8816 193.472 27.4216 194.412 28.5883C195.352 29.7549 197.715 30.3383 201.502 30.3383L206.832 30.3983L211.752 30.3383C214.992 30.3383 217.072 29.8383 217.992 28.8183C218.912 27.7983 219.372 25.7583 219.372 22.6683V0.508282H231.322L231.272 22.7683Z" fill="white"/>
<path d="M277.842 0.449219C282.532 0.449219 285.842 1.35922 287.892 3.16922C289.942 4.97922 290.892 8.16922 290.892 12.8092C290.912 14.3178 290.815 15.8257 290.602 17.3192C290.437 18.4709 290.039 19.5768 289.432 20.5692C288.918 21.3896 288.215 22.0753 287.382 22.5692C285.798 23.3378 284.152 23.9733 282.462 24.4692C284.61 24.625 286.679 25.3422 288.462 26.5492C289.755 27.5892 290.399 29.3959 290.392 31.9692V39.4692H278.372V35.7692C278.413 34.2303 278.245 32.6929 277.872 31.1992C277.542 30.0692 275.982 29.4992 273.212 29.4992H253.352V39.4992H241.462V0.449219H277.842ZM272.842 20.0092C275.509 20.0092 277.175 19.6759 277.842 19.0092C278.502 18.3392 278.842 16.8592 278.842 14.5592C278.893 13.5873 278.764 12.6145 278.462 11.6892C278.321 11.3636 278.104 11.0765 277.829 10.852C277.554 10.6276 277.229 10.4723 276.882 10.3992C276.232 10.1924 275.561 10.055 274.882 9.98922C274.372 9.98922 273.772 9.92922 273.062 9.92922H253.262V19.9692H272.772L272.842 20.0092Z" fill="white"/>
<path d="M317.722 39.5192L297.112 0.449219H310.112L325.442 29.8792L341.442 0.449219H354.702L332.882 39.5192H317.722Z" fill="white"/>
<path d="M405.002 0.449219V9.34922H373.272V16.0292H402.852V23.7592H373.272V30.6792H405.002V39.5192H361.382V0.449219H405.002Z" fill="white"/>
<path d="M466.062 0.449219L444.102 25.9692V39.5192H432.102V25.9692L409.822 0.449219H424.822L438.062 16.5592L451.182 0.449219H466.062Z" fill="white"/>
</g>
</g>
<defs>
<clipPath id="clip0_165_481">
<rect width="465.9" height="39.95" fill="white" transform="translate(0.162109 0.0390625)"/>
</clipPath>
</defs>
</svg>
