<svg width="466" height="40" viewBox="0 0 466 40" fill="none" xmlns="http://www.w3.org/2000/svg">
<g clip-path="url(#clip0_292_2)">
<mask id="mask0_292_2" style="mask-type:luminance" maskUnits="userSpaceOnUse" x="-42" y="-26" width="564" height="85">
<path d="M521.64 -23.1703H-41.16V-25.0703H521.64V-23.1703ZM521.64 -21.3803H-41.16V-19.4703H521.64V-21.3803ZM521.64 -17.6803H-41.16V-15.7803H521.64V-17.6803ZM521.64 -13.9903H-41.16V-12.0703H521.64V-13.9903ZM521.64 -10.2903H-41.16V-8.39031H521.64V-10.2903ZM521.64 -6.60031H-41.16V-4.69031H521.64V-6.60031ZM521.64 -2.90031H-41.16V-1.00031H521.64V-2.90031ZM521.64 0.789688H-41.16V2.68969H521.64V0.789688ZM521.64 4.47969H-41.16V6.38969H521.64V4.47969ZM521.64 8.17969H-41.16V10.0797H521.64V8.17969ZM521.64 11.8697H-41.16V13.7797H521.64V11.8697ZM521.64 15.5697H-41.16V17.4697H521.64V15.5697ZM521.64 19.2597H-41.16V21.1697H521.64V19.2597ZM521.64 22.9597H-41.16V24.8597H521.64V22.9597ZM521.64 26.6497H-41.16V28.5497H521.64V26.6497ZM521.64 30.3497H-41.16V32.2497H521.64V30.3497ZM521.64 34.0397H-41.16V35.9297H521.64V34.0397ZM521.64 37.7297H-41.16V39.6397H521.64V37.7297ZM521.64 41.4297H-41.16V43.3297H521.64V41.4297ZM521.64 45.1197H-41.16V47.0297H521.64V45.1197ZM521.64 48.8197H-41.16V50.7197H521.64V48.8197ZM521.64 52.5097H-41.16V54.4197H521.64V52.5097ZM521.64 56.2097H-41.16V58.1097H521.64V56.2097Z" fill="white"/>
</mask>
<g mask="url(#mask0_292_2)">
<path d="M34.45 0.410156C41.51 0.410156 46.2533 1.58016 48.68 3.92016C51.1067 6.26016 52.3167 10.9468 52.31 17.9802V22.4902C52.31 24.3302 52.31 25.6202 52.23 26.3602C52.15 27.1002 51.94 28.6102 51.55 30.9002C51.0581 33.3486 49.6209 35.5044 47.55 36.9002C45.0108 38.6975 41.9485 39.6046 38.84 39.4802H0V0.410156H34.45ZM40.3 20.0602V19.7102C40.3 15.9002 39.87 13.3202 39.02 12.0002C38.17 10.6802 35.85 10.0002 32.1 10.0002H11.89V29.8702H31.89C35.5567 29.8702 37.87 29.2035 38.83 27.8702C39.84 26.4702 40.3 23.9302 40.3 20.0602Z" fill="#656E7D"/>
<path d="M96.1299 0.410156C103.203 0.410156 107.95 1.58016 110.37 3.92016C112.79 6.26016 114 10.9468 114 17.9802V22.4902C114 24.3302 113.97 25.6202 113.91 26.3602C113.91 27.1002 113.63 28.6102 113.24 30.9002C112.748 33.3486 111.311 35.5044 109.24 36.9002C106.711 38.6877 103.665 39.5942 100.57 39.4802H61.6899V0.410156H96.1299ZM101.99 20.0602V19.7102C101.99 15.9002 101.56 13.3202 100.7 12.0002C99.8399 10.6802 97.5399 10.0002 93.7899 10.0002H73.5799V29.8702H93.5799C97.2599 29.8702 99.5799 29.1902 100.53 27.8702C101.48 26.5502 101.99 23.9302 101.99 20.0602Z" fill="#656E7D"/>
<path d="M134.62 27.6505C134.62 29.2505 135.16 30.2605 136.23 30.6505C137.676 31.1139 139.193 31.3204 140.71 31.2605L146.34 31.3205L154.34 31.0805C156.52 31.0805 157.95 30.8105 158.61 30.2605C158.94 29.9197 159.199 29.5164 159.371 29.0743C159.543 28.6322 159.624 28.1602 159.611 27.686C159.598 27.2118 159.491 26.745 159.295 26.313C159.099 25.881 158.818 25.4926 158.47 25.1705C157.7 24.5405 156.25 24.2305 154.1 24.2305H152.14L132.57 23.8205C128.903 23.8205 126.317 22.8938 124.81 21.0405C123.31 19.1805 122.55 16.3405 122.55 12.5105C122.418 9.91475 122.912 7.3253 123.99 4.96047C124.544 4.01121 125.296 3.19274 126.195 2.56105C127.094 1.92936 128.119 1.49936 129.2 1.30047C132.449 0.562959 135.768 0.177403 139.1 0.150469C143.18 0.0404688 145.93 -0.0195312 147.33 -0.0195312L155.65 0.0904694C158.339 0.0282679 161.026 0.296949 163.65 0.890469C164.524 1.05995 165.354 1.40307 166.093 1.89949C166.832 2.39591 167.463 3.03554 167.95 3.78047C168.692 4.95489 169.239 6.24148 169.57 7.59047C169.835 9.13919 169.952 10.7096 169.92 12.2805H158.29C158.348 11.7397 158.268 11.1932 158.058 10.6915C157.849 10.1898 157.515 9.74916 157.09 9.41047C156.074 8.80625 154.9 8.52062 153.72 8.59047L147.98 8.53047L138.9 8.82047C137.833 8.78916 136.775 9.02279 135.82 9.50047C135.414 9.71185 135.078 10.0374 134.854 10.4372C134.63 10.837 134.528 11.2934 134.56 11.7505C134.484 12.321 134.588 12.9011 134.856 13.4101C135.125 13.919 135.546 14.3316 136.06 14.5905C137.355 15.0976 138.741 15.3292 140.13 15.2705H141.36L149.36 15.3805L157.21 15.4405C162.21 15.4405 165.91 16.2305 168.21 17.8205C170.51 19.4105 171.64 22.5705 171.64 27.3405C171.64 31.9405 170.613 35.1038 168.56 36.8305C166.507 38.5571 163.12 39.4138 158.4 39.4005L143.17 39.8105L135.17 39.6405C130.95 39.6405 127.85 38.9505 125.85 37.5905C123.85 36.2305 122.85 33.4705 122.85 29.3305V27.0005H134.56L134.62 27.6505Z" fill="#656E7D"/>
<path d="M231.11 22.7292V25.0092C231.11 31.1026 229.517 35.1026 226.33 37.0092C223.143 38.9159 218.233 39.8892 211.6 39.9292H201.84C197.88 40.0218 193.92 39.7473 190.01 39.1092C187.362 38.6037 185.006 37.1091 183.42 34.9292C181.74 32.7092 180.9 29.2159 180.9 24.4492V0.449219H192.84V20.9292C192.84 24.8426 193.31 27.3826 194.25 28.5492C195.19 29.7159 197.553 30.2992 201.34 30.2992L206.67 30.3592L211.59 30.2992C214.83 30.2992 216.91 29.7992 217.83 28.7792C218.75 27.7592 219.21 25.7192 219.21 22.6292V0.469219H231.16L231.11 22.7292Z" fill="#656E7D"/>
<path d="M277.68 0.410156C282.37 0.410156 285.68 1.32016 287.73 3.13016C289.78 4.94016 290.73 8.13016 290.73 12.7702C290.75 14.2787 290.653 15.7866 290.44 17.2802C290.275 18.4318 289.877 19.5377 289.27 20.5302C288.756 21.3505 288.053 22.0362 287.22 22.5302C285.636 23.2987 283.99 23.9342 282.3 24.4302C284.448 24.5859 286.517 25.3032 288.3 26.5102C289.593 27.5502 290.237 29.3568 290.23 31.9302V39.4302H278.21V35.7302C278.251 34.1912 278.083 32.6538 277.71 31.1602C277.38 30.0302 275.82 29.4602 273.05 29.4602H253.19V39.4602H241.3V0.410156H277.68ZM272.68 19.9702C275.347 19.9702 277.013 19.6368 277.68 18.9702C278.34 18.3002 278.68 16.8202 278.68 14.5202C278.731 13.5483 278.602 12.5754 278.3 11.6502C278.159 11.3245 277.942 11.0374 277.667 10.813C277.392 10.5885 277.067 10.4332 276.72 10.3602C276.07 10.1534 275.399 10.0159 274.72 9.95016C274.21 9.95016 273.61 9.89016 272.9 9.89016H253.1V19.9302H272.61L272.68 19.9702Z" fill="#656E7D"/>
<path d="M317.56 39.4802L296.95 0.410156H309.95L325.28 29.8402L341.28 0.410156H354.54L332.72 39.4802H317.56Z" fill="#656E7D"/>
<path d="M404.84 0.410156V9.31016H373.11V15.9902H402.69V23.7202H373.11V30.6402H404.84V39.4802H361.22V0.410156H404.84Z" fill="#656E7D"/>
<path d="M465.9 0.410156L443.94 25.9302V39.4802H431.94V25.9302L409.66 0.410156H424.66L437.9 16.5202L451.02 0.410156H465.9Z" fill="#656E7D"/>
</g>
</g>
<defs>
<clipPath id="clip0_292_2">
<rect width="465.9" height="39.95" fill="white"/>
</clipPath>
</defs>
</svg>
