<svg width="1441" height="179" viewBox="0 0 1441 179" fill="none" xmlns="http://www.w3.org/2000/svg">
<rect width="1441" height="177.521" transform="translate(0 0.757812)" fill="white"/>
<path d="M0.624023 178.277C8.16757 84.0679 83.3111 8.92548 177.521 1.38185L177.521 0.756851L1.55193e-05 0.756836L0 178.277L0.624023 178.277Z" fill="#656E7D"/>
<g clip-path="url(#clip0_303_2)">
<mask id="mask0_303_2" style="mask-type:luminance" maskUnits="userSpaceOnUse" x="446" y="44" width="564" height="84">
<path d="M1009.19 46.3727H446.39V44.4727H1009.19V46.3727ZM1009.19 48.1627H446.39V50.0727H1009.19V48.1627ZM1009.19 51.8627H446.39V53.7627H1009.19V51.8627ZM1009.19 55.5527H446.39V57.4727H1009.19V55.5527ZM1009.19 59.2527H446.39V61.1527H1009.19V59.2527ZM1009.19 62.9427H446.39V64.8527H1009.19V62.9427ZM1009.19 66.6427H446.39V68.5427H1009.19V66.6427ZM1009.19 70.3327H446.39V72.2327H1009.19V70.3327ZM1009.19 74.0227H446.39V75.9327H1009.19V74.0227ZM1009.19 77.7227H446.39V79.6227H1009.19V77.7227ZM1009.19 81.4127H446.39V83.3227H1009.19V81.4127ZM1009.19 85.1127H446.39V87.0127H1009.19V85.1127ZM1009.19 88.8027H446.39V90.7127H1009.19V88.8027ZM1009.19 92.5027H446.39V94.4027H1009.19V92.5027ZM1009.19 96.1927H446.39V98.0927H1009.19V96.1927ZM1009.19 99.8927H446.39V101.793H1009.19V99.8927ZM1009.19 103.583H446.39V105.473H1009.19V103.583ZM1009.19 107.273H446.39V109.183H1009.19V107.273ZM1009.19 110.973H446.39V112.873H1009.19V110.973ZM1009.19 114.663H446.39V116.573H1009.19V114.663ZM1009.19 118.363H446.39V120.263H1009.19V118.363ZM1009.19 122.053H446.39V123.963H1009.19V122.053ZM1009.19 125.753H446.39V127.653H1009.19V125.753Z" fill="white"/>
</mask>
<g mask="url(#mask0_303_2)">
<path d="M522 69.9531C529.06 69.9531 533.803 71.1231 536.23 73.4631C538.657 75.8031 539.867 80.4898 539.86 87.5231V92.0331C539.86 93.8731 539.86 95.1631 539.78 95.9031C539.7 96.6431 539.49 98.1531 539.1 100.443C538.608 102.892 537.171 105.047 535.1 106.443C532.561 108.24 529.499 109.148 526.39 109.023H487.55V69.9531H522ZM527.85 89.6031V89.2531C527.85 85.4431 527.42 82.8631 526.57 81.5431C525.72 80.2231 523.4 79.5431 519.65 79.5431H499.44V99.4131H519.44C523.107 99.4131 525.42 98.7465 526.38 97.4131C527.39 96.0131 527.85 93.4731 527.85 89.6031Z" fill="#656E7D"/>
<path d="M583.68 69.9531C590.753 69.9531 595.5 71.1231 597.92 73.4631C600.34 75.8031 601.55 80.4898 601.55 87.5231V92.0331C601.55 93.8731 601.52 95.1631 601.46 95.9031C601.46 96.6431 601.18 98.1531 600.79 100.443C600.298 102.892 598.861 105.047 596.79 106.443C594.261 108.231 591.215 109.137 588.12 109.023H549.24V69.9531H583.68ZM589.54 89.6031V89.2531C589.54 85.4431 589.11 82.8631 588.25 81.5431C587.39 80.2231 585.09 79.5431 581.34 79.5431H561.13V99.4131H581.13C584.81 99.4131 587.13 98.7331 588.08 97.4131C589.03 96.0931 589.54 93.4731 589.54 89.6031Z" fill="#656E7D"/>
<path d="M622.17 97.1934C622.17 98.7934 622.71 99.8034 623.78 100.193C625.226 100.657 626.743 100.863 628.26 100.803L633.89 100.863L641.89 100.623C644.07 100.623 645.5 100.353 646.16 99.8034C646.49 99.4627 646.749 99.0594 646.921 98.6173C647.092 98.1752 647.174 97.7032 647.161 97.229C647.148 96.7548 647.041 96.288 646.845 95.856C646.649 95.424 646.368 95.0356 646.02 94.7134C645.25 94.0834 643.8 93.7734 641.65 93.7734H639.69L620.12 93.3634C616.453 93.3634 613.867 92.4368 612.36 90.5834C610.86 88.7234 610.1 85.8834 610.1 82.0534C609.968 79.4577 610.462 76.8683 611.54 74.5034C612.094 73.5542 612.846 72.7357 613.745 72.104C614.644 71.4723 615.669 71.0423 616.75 70.8434C619.999 70.1059 623.318 69.7204 626.65 69.6934C630.73 69.5834 633.48 69.5234 634.88 69.5234L643.2 69.6334C645.889 69.5712 648.576 69.8399 651.2 70.4334C652.074 70.6029 652.904 70.946 653.643 71.4425C654.382 71.9389 655.013 72.5785 655.5 73.3234C656.242 74.4979 656.789 75.7844 657.12 77.1334C657.385 78.6822 657.502 80.2525 657.47 81.8234H645.84C645.898 81.2827 645.818 80.7362 645.608 80.2345C645.399 79.7328 645.065 79.2921 644.64 78.9534C643.624 78.3492 642.45 78.0636 641.27 78.1334L635.53 78.0734L626.45 78.3634C625.383 78.3321 624.325 78.5658 623.37 79.0434C622.964 79.2548 622.628 79.5804 622.404 79.9802C622.18 80.3799 622.078 80.8364 622.11 81.2934C622.034 81.864 622.138 82.4441 622.406 82.953C622.675 83.462 623.096 83.8746 623.61 84.1334C624.905 84.6406 626.291 84.8722 627.68 84.8134H628.91L636.91 84.9234L644.76 84.9834C649.76 84.9834 653.46 85.7734 655.76 87.3634C658.06 88.9534 659.19 92.1134 659.19 96.8834C659.19 101.483 658.163 104.647 656.11 106.373C654.057 108.1 650.67 108.957 645.95 108.943L630.72 109.353L622.72 109.183C618.5 109.183 615.4 108.493 613.4 107.133C611.4 105.773 610.4 103.013 610.4 98.8734V96.5434H622.11L622.17 97.1934Z" fill="#656E7D"/>
<path d="M718.66 92.2722V94.5522C718.66 100.646 717.067 104.646 713.88 106.552C710.693 108.459 705.783 109.432 699.15 109.472H689.39C685.43 109.565 681.47 109.29 677.56 108.652C674.912 108.147 672.556 106.652 670.97 104.472C669.29 102.252 668.45 98.7589 668.45 93.9922V69.9922H680.39V90.4722C680.39 94.3855 680.86 96.9255 681.8 98.0922C682.74 99.2589 685.103 99.8422 688.89 99.8422L694.22 99.9022L699.14 99.8422C702.38 99.8422 704.46 99.3422 705.38 98.3222C706.3 97.3022 706.76 95.2622 706.76 92.1722V70.0122H718.71L718.66 92.2722Z" fill="#656E7D"/>
<path d="M765.23 69.9531C769.92 69.9531 773.23 70.8631 775.28 72.6731C777.33 74.4831 778.28 77.6731 778.28 82.3131C778.3 83.8217 778.203 85.3296 777.99 86.8231C777.825 87.9748 777.427 89.0807 776.82 90.0731C776.306 90.8935 775.603 91.5792 774.77 92.0731C773.186 92.8417 771.54 93.4772 769.85 93.9731C771.998 94.1289 774.067 94.8461 775.85 96.0531C777.143 97.0931 777.787 98.8998 777.78 101.473V108.973H765.76V105.273C765.801 103.734 765.633 102.197 765.26 100.703C764.93 99.5731 763.37 99.0031 760.6 99.0031H740.74V109.003H728.85V69.9531H765.23ZM760.23 89.5131C762.897 89.5131 764.563 89.1798 765.23 88.5131C765.89 87.8431 766.23 86.3631 766.23 84.0631C766.281 83.0912 766.152 82.1184 765.85 81.1931C765.709 80.8675 765.492 80.5804 765.217 80.3559C764.942 80.1315 764.617 79.9762 764.27 79.9031C763.62 79.6963 762.949 79.5589 762.27 79.4931C761.76 79.4931 761.16 79.4331 760.45 79.4331H740.65V89.4731H760.16L760.23 89.5131Z" fill="#656E7D"/>
<path d="M805.11 109.023L784.5 69.9531H797.5L812.83 99.3831L828.83 69.9531H842.09L820.27 109.023H805.11Z" fill="#656E7D"/>
<path d="M892.39 69.9531V78.8531H860.66V85.5331H890.24V93.2631H860.66V100.183H892.39V109.023H848.77V69.9531H892.39Z" fill="#656E7D"/>
<path d="M953.45 69.9531L931.49 95.4731V109.023H919.49V95.4731L897.21 69.9531H912.21L925.45 86.0631L938.57 69.9531H953.45Z" fill="#656E7D"/>
</g>
</g>
<path d="M1440.38 178.277C1432.83 84.0679 1357.69 8.92548 1263.48 1.38185L1263.48 0.756851L1441 0.756836L1441 178.277L1440.38 178.277Z" fill="#656E7D"/>
<defs>
<clipPath id="clip0_303_2">
<rect width="465.9" height="39.95" fill="white" transform="translate(487.55 69.543)"/>
</clipPath>
</defs>
</svg>
