<svg width="40" height="40" viewBox="0 0 40 40" fill="none" xmlns="http://www.w3.org/2000/svg">
<g clip-path="url(#clip0_211_6)">
<mask id="mask0_211_6" style="mask-type:luminance" maskUnits="userSpaceOnUse" x="1" y="1" width="38" height="38">
<path d="M19.9795 38.5C30.1968 38.5 38.4795 30.2173 38.4795 20C38.4795 9.78273 30.1968 1.5 19.9795 1.5C9.76222 1.5 1.47949 9.78273 1.47949 20C1.47949 30.2173 9.76222 38.5 19.9795 38.5Z" fill="white"/>
</mask>
<g mask="url(#mask0_211_6)">
<path d="M1.47949 1.5L2.05762 3.08984L1.47949 4.75195V6.41406L3.79199 10.3164L1.47949 14.2188V16.5312L3.79199 20L1.47949 23.4688V25.7812L3.79199 29.6836L1.47949 33.5859V38.5L3.06934 37.9219L4.73145 38.5H6.39355L10.2959 36.1875L14.1982 38.5H16.5107L19.9795 36.1875L23.4482 38.5H25.7607L29.6631 36.1875L33.5654 38.5H38.4795L37.9014 36.9102L38.4795 35.248V33.5859L36.167 29.6836L38.4795 25.7812V23.4688L36.167 20L38.4795 16.5312V14.2188L36.167 10.3164L38.4795 6.41406V1.5L36.8896 2.07812L35.2275 1.5H33.5654L29.6631 3.8125L25.7607 1.5H23.4482L19.9795 3.8125L16.5107 1.5H14.1982L10.2959 3.8125L6.39355 1.5H1.47949Z" fill="#EEEEEE"/>
<path d="M25.7607 1.5V9.30469L33.5654 1.5H25.7607ZM38.4795 6.41406L30.6748 14.2188H38.4795V6.41406ZM1.47949 14.2188H9.28418L1.47949 6.41406V14.2188ZM6.39355 1.5L14.1982 9.30469V1.5H6.39355ZM14.1982 38.5V30.6953L6.39355 38.5H14.1982ZM1.47949 33.5859L9.28418 25.7812H1.47949V33.5859ZM38.4795 25.7812H30.6748L38.4795 33.5859V25.7812ZM33.5654 38.5L25.7607 30.6953V38.5H33.5654Z" fill="#0052B4"/>
<path d="M1.47949 1.5V4.75195L10.9463 14.2188H14.1982L1.47949 1.5ZM16.5107 1.5V16.5312H1.47949V23.4688H16.5107V38.5H23.4482V23.4688H38.4795V16.5312H23.4482V1.5H16.5107ZM35.2275 1.5L25.7607 10.9668V14.2188L38.4795 1.5H35.2275ZM14.1982 25.7812L1.47949 38.5H4.73145L14.1982 29.0332V25.7812ZM25.7607 25.7812L38.4795 38.5V35.248L29.0127 25.7812H25.7607Z" fill="#D80027"/>
</g>
</g>
<rect x="0.979492" y="1" width="38" height="38" rx="19" stroke="white"/>
<defs>
<clipPath id="clip0_211_6">
<rect x="1.47949" y="1.5" width="37" height="37" rx="18.5" fill="white"/>
</clipPath>
</defs>
</svg>
