<svg width="25" height="25" viewBox="0 0 25 25" fill="none" xmlns="http://www.w3.org/2000/svg">
<path d="M5.9683 6.87894C5.85406 6.81733 5.72578 6.78642 5.59602 6.78924C5.46625 6.79206 5.33944 6.82851 5.22798 6.89502C5.11652 6.96153 5.02422 7.05583 4.96013 7.1687C4.89603 7.28157 4.86233 7.40914 4.8623 7.53894V17.0389C4.8623 17.2379 4.94132 17.4286 5.08197 17.5693C5.22263 17.7099 5.41339 17.7889 5.6123 17.7889C5.81122 17.7889 6.00198 17.7099 6.14263 17.5693C6.28329 17.4286 6.3623 17.2379 6.3623 17.0389V8.79494L11.7563 11.6989C11.9783 11.8189 12.2463 11.8189 12.4683 11.6989L17.8623 8.79494V17.0389C17.8623 17.2379 17.9413 17.4286 18.082 17.5693C18.2226 17.7099 18.4134 17.7889 18.6123 17.7889C18.8112 17.7889 19.002 17.7099 19.1426 17.5693C19.2833 17.4286 19.3623 17.2379 19.3623 17.0389V7.53894C19.3623 7.40914 19.3286 7.28157 19.2645 7.1687C19.2004 7.05583 19.1081 6.96153 18.9966 6.89502C18.8852 6.82851 18.7584 6.79206 18.6286 6.78924C18.4988 6.78642 18.3705 6.81733 18.2563 6.87894L12.1123 10.1869L5.9683 6.87894Z" fill="white"/>
<path fill-rule="evenodd" clip-rule="evenodd" d="M17.4223 3.76045C13.8894 3.44443 10.3353 3.44443 6.80233 3.76045L5.28433 3.89545C4.49362 3.96606 3.74979 4.30113 3.17297 4.84656C2.59615 5.39199 2.22002 6.11593 2.10533 6.90145C1.60714 10.308 1.60714 13.7689 2.10533 17.1755C2.22027 17.961 2.59664 18.6848 3.17364 19.23C3.75064 19.7753 4.49459 20.1101 5.28533 20.1805L6.80133 20.3165C10.3353 20.6325 13.8893 20.6325 17.4233 20.3165L18.9403 20.1805C19.7309 20.1099 20.4746 19.775 21.0514 19.2297C21.6282 18.6845 22.0044 17.9608 22.1193 17.1755C22.6175 13.7689 22.6175 10.308 22.1193 6.90145C22.0046 6.11577 21.6283 5.39172 21.0513 4.84627C20.4743 4.30083 19.7302 3.96585 18.9393 3.89545L17.4223 3.76045ZM6.93633 5.25445C10.3808 4.94578 13.8459 4.94578 17.2903 5.25445L18.8073 5.39045C19.2621 5.43084 19.69 5.62336 20.0218 5.9369C20.3537 6.25045 20.5702 6.66671 20.6363 7.11845C21.1135 10.3811 21.1135 13.6958 20.6363 16.9585C20.5702 17.4102 20.3537 17.8265 20.0218 18.14C19.69 18.4535 19.2621 18.6461 18.8073 18.6865L17.2903 18.8225C13.8463 19.1305 10.3803 19.1305 6.93633 18.8225L5.41933 18.6865C4.96456 18.6461 4.53668 18.4535 4.20481 18.14C3.87294 17.8265 3.65646 17.4102 3.59033 16.9585C3.11318 13.6958 3.11318 10.3811 3.59033 7.11845C3.65646 6.66671 3.87294 6.25045 4.20481 5.9369C4.53668 5.62336 4.96456 5.43084 5.41933 5.39045L6.93633 5.25445Z" fill="white"/>
</svg>
