<svg width="25" height="25" viewBox="0 0 25 25" fill="none" xmlns="http://www.w3.org/2000/svg">
<path d="M19.6123 22.0391C20.0101 22.0391 20.3917 21.881 20.673 21.5997C20.9543 21.3184 21.1123 20.9369 21.1123 20.5391V17.0391C21.1123 16.6412 20.9543 16.2597 20.673 15.9784C20.3917 15.6971 20.0101 15.5391 19.6123 15.5391C18.4423 15.5391 17.2923 15.3591 16.1923 14.9891C15.9293 14.9061 15.6486 14.8966 15.3807 14.9619C15.1127 15.0271 14.8677 15.1645 14.6723 15.3591L13.2323 16.7991C10.7445 15.4415 8.69989 13.3968 7.3423 10.9091L8.7723 9.47906C9.1823 9.08906 9.3323 8.50906 9.1523 7.94906C8.7923 6.85906 8.6123 5.70906 8.6123 4.53906C8.6123 4.14124 8.45427 3.75971 8.17297 3.4784C7.89166 3.1971 7.51013 3.03906 7.1123 3.03906H3.6123C3.21448 3.03906 2.83295 3.1971 2.55164 3.4784C2.27034 3.75971 2.1123 4.14124 2.1123 4.53906C2.1123 14.1891 9.96231 22.0391 19.6123 22.0391ZM3.6123 4.03906H7.1123C7.24491 4.03906 7.37209 4.09174 7.46586 4.18551C7.55963 4.27928 7.6123 4.40645 7.6123 4.53906C7.6123 5.81906 7.8123 7.06906 8.2023 8.25906C8.25231 8.39906 8.2423 8.59906 8.0823 8.75906L6.1123 10.7191C7.7623 13.9491 10.1823 16.3691 13.4223 18.0391L15.3723 16.0691C15.5123 15.9291 15.7023 15.8891 15.8823 15.9391C17.0823 16.3391 18.3323 16.5391 19.6123 16.5391C19.7449 16.5391 19.8721 16.5917 19.9659 16.6855C20.0596 16.7793 20.1123 16.9065 20.1123 17.0391V20.5391C20.1123 20.6717 20.0596 20.7988 19.9659 20.8926C19.8721 20.9864 19.7449 21.0391 19.6123 21.0391C10.5123 21.0391 3.1123 13.6391 3.1123 4.53906C3.1123 4.40645 3.16498 4.27928 3.25875 4.18551C3.35252 4.09174 3.4797 4.03906 3.6123 4.03906Z" fill="white"/>
</svg>
