<svg width="38" height="37" viewBox="0 0 38 37" fill="none" xmlns="http://www.w3.org/2000/svg">
<g clip-path="url(#clip0_220_17)">
<rect x="37.4795" y="0.5" width="36" height="37" rx="18" transform="rotate(90 37.4795 0.5)" fill="white"/>
<g clip-path="url(#clip1_220_17)">
<path d="M41.3139 40.4603C42.2488 40.2488 43.0703 39.7301 43.2928 39.1222C44.9908 34.5034 44.9157 29.8845 44.2165 25.2656L-4.74349 25.2656C-4.04431 29.8845 -3.96917 34.5034 -5.66725 39.1222C-5.88971 39.73 -5.52021 40.2488 -4.77343 40.4603L41.3139 40.4603Z" fill="#FFE62E"/>
<path d="M41.3139 12.1399C42.2488 11.9285 43.0703 11.4098 43.2928 10.8019C44.9908 6.18304 44.9157 1.56418 44.2165 -3.05469L-4.74349 -3.05469C-4.04431 1.56418 -3.96917 6.18304 -5.66725 10.8019C-5.88971 11.4097 -5.52021 11.9285 -4.77343 12.1399L41.3139 12.1399Z" fill="#3E4347"/>
<rect x="-1.1377" y="12.1406" width="39.6284" height="13.125" fill="#ED4C5C"/>
</g>
</g>
<rect x="36.9795" y="1" width="35" height="36" rx="17.5" transform="rotate(90 36.9795 1)" stroke="white"/>
<defs>
<clipPath id="clip0_220_17">
<rect x="37.4795" y="0.5" width="36" height="37" rx="18" transform="rotate(90 37.4795 0.5)" fill="white"/>
</clipPath>
<clipPath id="clip1_220_17">
<rect width="45.7969" height="45.7969" fill="white" transform="translate(41.3779 -4.39844) rotate(90)"/>
</clipPath>
</defs>
</svg>
