<svg width="25" height="24" viewBox="0 0 25 24" fill="none" xmlns="http://www.w3.org/2000/svg">
<path d="M20.5381 18H18.5381V9.25L12.5381 13L6.53809 9.25V18H4.53809V6H5.73809L12.5381 10.25L19.3381 6H20.5381M20.5381 4H4.53809C3.42809 4 2.53809 4.89 2.53809 6V18C2.53809 18.5304 2.7488 19.0391 3.12387 19.4142C3.49894 19.7893 4.00765 20 4.53809 20H20.5381C21.0685 20 21.5772 19.7893 21.9523 19.4142C22.3274 19.0391 22.5381 18.5304 22.5381 18V6C22.5381 5.46957 22.3274 4.96086 21.9523 4.58579C21.5772 4.21071 21.0685 4 20.5381 4Z" fill="white"/>
</svg>
