<svg width="25" height="25" viewBox="0 0 25 25" fill="none" xmlns="http://www.w3.org/2000/svg">
<path d="M12.6123 12.1201C11.7876 12.1201 11.0813 11.8261 10.4933 11.2381C9.9053 10.6501 9.61164 9.94412 9.6123 9.12012C9.61297 8.29612 9.90664 7.58945 10.4933 7.00012C11.08 6.41079 11.7863 6.11779 12.6123 6.12112C13.4383 6.12446 14.1446 6.41779 14.7313 7.00112C15.318 7.58445 15.6116 8.29112 15.6123 9.12112C15.613 9.95112 15.3193 10.6571 14.7313 11.2391C14.1433 11.8211 13.437 12.1141 12.6123 12.1201ZM5.6123 19.3511V17.7051C5.6123 17.2925 5.7323 16.9065 5.9723 16.5471C6.21297 16.1871 6.5363 15.9078 6.9423 15.7091C7.8863 15.2565 8.83097 14.9171 9.7763 14.6911C10.721 14.4645 11.6663 14.3511 12.6123 14.3511C13.5583 14.3511 14.504 14.4645 15.4493 14.6911C16.3946 14.9178 17.3386 15.2571 18.2813 15.7091C18.688 15.9078 19.0113 16.1871 19.2513 16.5471C19.492 16.9065 19.6123 17.2925 19.6123 17.7051V19.3511H5.6123Z" fill="#987F2F"/>
</svg>
