<svg width="38" height="37" viewBox="0 0 38 37" fill="none" xmlns="http://www.w3.org/2000/svg">
<g clip-path="url(#clip0_220_11)">
<rect x="0.479492" y="0.5" width="37" height="36" rx="18" fill="white"/>
<g clip-path="url(#clip1_220_11)">
<path d="M41.4417 -4.33439C41.2303 -5.2693 40.7115 -6.0908 40.1037 -6.31326C35.4848 -8.01134 30.8659 -7.93619 26.2471 -7.23702V41.723C30.8659 41.0238 35.4848 40.9487 40.1037 42.6467C40.7115 42.8692 41.2303 42.4997 41.4417 41.7529V-4.33439Z" fill="#FF473E"/>
<path d="M13.1194 -4.33439C12.908 -5.2693 12.3893 -6.0908 11.7814 -6.31326C7.16254 -8.01134 2.54367 -7.93619 -2.0752 -7.23702V41.723C2.54367 41.0238 7.16254 40.9487 11.7814 42.6467C12.3892 42.8692 12.908 42.4997 13.1194 41.7529V-4.33439Z" fill="#009246"/>
</g>
</g>
<rect x="0.979492" y="1" width="36" height="35" rx="17.5" stroke="white"/>
<defs>
<clipPath id="clip0_220_11">
<rect x="0.479492" y="0.5" width="37" height="36" rx="18" fill="white"/>
</clipPath>
<clipPath id="clip1_220_11">
<rect width="45.7969" height="45.7969" fill="white" transform="translate(-3.41895 -4.39844)"/>
</clipPath>
</defs>
</svg>
