<svg width="25" height="24" viewBox="0 0 25 24" fill="none" xmlns="http://www.w3.org/2000/svg">
<path d="M7.15809 10.79C8.59809 13.62 10.9181 15.93 13.7481 17.38L15.9481 15.18C16.2181 14.91 16.6181 14.82 16.9681 14.94C18.0881 15.31 19.2981 15.51 20.5381 15.51C21.0881 15.51 21.5381 15.96 21.5381 16.51V20C21.5381 20.55 21.0881 21 20.5381 21C11.1481 21 3.53809 13.39 3.53809 4C3.53809 3.45 3.98809 3 4.53809 3H8.03809C8.58809 3 9.03809 3.45 9.03809 4C9.03809 5.25 9.23809 6.45 9.60809 7.57C9.71809 7.92 9.63809 8.31 9.35809 8.59L7.15809 10.79Z" fill="white"/>
</svg>
